<svg width="48" height="50" viewBox="0 0 48 50" fill="none" xmlns="http://www.w3.org/2000/svg">
<path d="M31.236 15.9005C26.3734 8.74661 19.8789 4.94441 16.4778 7.27408C16.1033 7.53782 15.7779 7.86511 15.5163 8.24112C15.5163 8.26859 7.64263 24.2027 7.64263 24.2027L3.24703 27.1807C2.57224 27.6387 1.99431 28.2253 1.54626 28.9067C1.0982 29.5882 0.788801 30.3513 0.635728 31.1524C0.482655 31.9535 0.48891 32.7768 0.654136 33.5755C0.819361 34.3742 1.14032 35.1325 1.59868 35.807L1.79648 36.0983C2.72297 37.4479 4.14418 38.3778 5.75186 38.6864C7.35954 38.995 9.02406 38.6573 10.3844 37.7466L17.4448 48.1477C18.4833 49.4279 20.4778 50.7027 22.9393 49.2027C23.3754 48.9199 23.7474 48.5489 24.0313 48.1136C24.3152 47.6782 24.5047 47.1882 24.5877 46.6752C24.6871 46.1649 24.6844 45.6399 24.5798 45.1306C24.4751 44.6213 24.2705 44.1379 23.9778 43.7081L17.758 34.5323C17.758 34.5323 32.4613 33.362 32.5163 33.34C32.9753 33.2439 33.4106 33.0571 33.7965 32.7906C35.5437 31.6038 36.1701 29.1147 35.5657 25.7796C35.0218 22.7081 33.4778 19.2301 31.236 15.9005ZM3.39538 35.0158L3.19758 34.7246C2.88134 34.2591 2.66002 33.7357 2.5463 33.1845C2.43257 32.6333 2.42868 32.065 2.53483 31.5123C2.64099 30.9596 2.85511 30.4332 3.16494 29.9634C3.47477 29.4935 3.87422 29.0894 4.34044 28.7741L8.13714 26.1917L13.1481 33.5708L9.35142 36.1532C8.88575 36.4699 8.36223 36.6916 7.8108 36.8058C7.25937 36.9201 6.69084 36.9245 6.1377 36.8189C5.58455 36.7132 5.05765 36.4996 4.58711 36.1902C4.11657 35.8809 3.71161 35.4818 3.39538 35.0158ZM22.3954 44.7906C22.6957 45.2374 22.8065 45.7851 22.7035 46.3135C22.6005 46.8419 22.2921 47.3079 21.8459 47.6092C21.3982 47.9098 20.8497 48.0208 20.3204 47.9178C19.791 47.8148 19.3241 47.5063 19.0218 47.0598L11.9833 36.6917L14.813 34.7686L15.5602 34.7081L22.3954 44.7906ZM14.9668 32.8235L9.50527 24.7796L14.7141 14.1587C15.2196 17.1422 16.6976 20.6862 19.0602 24.1642C21.4229 27.6422 24.1701 30.3235 26.7525 31.895L14.9668 32.8235ZM31.1756 31.5433C28.5492 31.373 24.2745 28.4114 20.6536 23.0763C17.0327 17.7411 15.8569 12.6917 16.6646 10.1807C16.8105 9.70935 17.1015 9.29617 17.4962 9.00014C17.8909 8.70412 18.3691 8.54038 18.8624 8.53232C21.4668 8.53232 25.9009 11.5103 29.6262 16.9994C31.7251 20.0873 33.2525 23.318 33.6701 26.1422C34.4888 31.5433 31.1756 31.5433 31.1756 31.5433Z" fill="#FF8D28"/>
<path d="M24.3672 16.1045C23.6942 15.9723 23.0016 15.9757 22.3299 16.1144C21.6581 16.2531 21.0208 16.5243 20.4551 16.9122C20.3509 16.9844 20.2619 17.0763 20.1931 17.1829C20.1244 17.2895 20.0774 17.4085 20.0547 17.5333C20.032 17.658 20.0341 17.786 20.0608 17.9099C20.0876 18.0339 20.1385 18.1513 20.2106 18.2556C20.2828 18.3599 20.3748 18.4489 20.4813 18.5176C20.5879 18.5863 20.707 18.6334 20.8317 18.6561C20.9565 18.6788 21.0845 18.6767 21.2084 18.6499C21.3323 18.6232 21.4498 18.5723 21.554 18.5001C21.9123 18.2569 22.3149 18.0867 22.739 17.9992C23.163 17.9116 23.6001 17.9084 24.0254 17.9898C24.4507 18.0712 24.8557 18.2355 25.2175 18.4735C25.5792 18.7114 25.8906 19.0182 26.1337 19.3765C26.3769 19.7347 26.5471 20.1374 26.6347 20.5614C26.7222 20.9854 26.7254 21.4226 26.644 21.8478C26.5626 22.2731 26.3983 22.6782 26.1604 23.0399C25.9224 23.4016 25.6156 23.713 25.2573 23.9562C25.0884 24.0728 24.9613 24.2405 24.8945 24.4346C24.8277 24.6287 24.8248 24.8391 24.8862 25.035C24.9476 25.2309 25.0701 25.402 25.2358 25.5232C25.4014 25.6445 25.6015 25.7096 25.8068 25.7089C26.0027 25.7126 26.1948 25.6549 26.3562 25.5441C27.2109 24.9651 27.8744 24.1456 28.2629 23.1892C28.6513 22.2329 28.7471 21.1828 28.5383 20.1719C28.3294 19.161 27.8252 18.2349 27.0895 17.5108C26.3538 16.7867 25.4198 16.2973 24.4057 16.1045H24.3672Z" fill="#FF8D28"/>
<path d="M32.4228 9.21388H32.5162C32.754 9.21378 32.9833 9.12555 33.1599 8.96623C33.3365 8.80691 33.4477 8.58781 33.4722 8.35124L34.214 1.14245C34.2308 1.01498 34.222 0.885422 34.1879 0.761435C34.1538 0.637448 34.0952 0.521554 34.0156 0.420611C33.9359 0.319667 33.8369 0.235724 33.7242 0.173748C33.6115 0.111773 33.4876 0.0730227 33.3597 0.0597916C33.2318 0.0465605 33.1025 0.0591168 32.9796 0.0967178C32.8566 0.134319 32.7424 0.1962 32.6438 0.278702C32.5452 0.361203 32.4641 0.462648 32.4054 0.577034C32.3466 0.691421 32.3114 0.816425 32.3019 0.944652L31.5656 8.15894C31.5395 8.41247 31.6151 8.66601 31.7758 8.86383C31.9365 9.06164 32.1692 9.18755 32.4228 9.21388Z" fill="#FF8D28"/>
<path d="M44.8514 7.72933C44.7102 7.51652 44.4906 7.36819 44.2405 7.31672C43.9903 7.26525 43.73 7.31482 43.5162 7.45461L36.8184 11.8502C36.6445 11.9651 36.5126 12.1333 36.4426 12.3296C36.3726 12.5259 36.3682 12.7396 36.4302 12.9386C36.4922 13.1376 36.6172 13.311 36.7863 13.4328C36.9554 13.5546 37.1595 13.6182 37.3679 13.614C37.5623 13.6184 37.7535 13.5649 37.9173 13.4601L44.6151 9.0645C44.8229 8.91831 44.9644 8.69582 45.0087 8.44565C45.0529 8.19548 44.9964 7.93795 44.8514 7.72933Z" fill="#FF8D28"/>
<path d="M46.9011 19.4671L39.1099 18.066C38.8585 18.0208 38.5995 18.0773 38.3898 18.2231C38.1801 18.3689 38.0369 18.5921 37.9917 18.8434C37.9466 19.0948 38.0031 19.3538 38.1489 19.5635C38.2947 19.7732 38.5178 19.9164 38.7692 19.9616L46.5549 21.3627H46.7253C46.9703 21.3698 47.2087 21.2832 47.392 21.1204C47.5752 20.9576 47.6894 20.731 47.7111 20.4869C47.7329 20.2427 47.6606 19.9995 47.509 19.8069C47.3574 19.6143 47.138 19.4868 46.8956 19.4506L46.9011 19.4671Z" fill="#FF8D28"/>
</svg>
